<svg width="24" height="24" viewBox="0 0 24 24" fill="none" xmlns="http://www.w3.org/2000/svg">
    <path d="M2.98833 7.38C2.87192 7.49611 2.77956 7.63405 2.71655 7.78591C2.65353 7.93778 2.62109 8.10058 2.62109 8.265C2.62109 8.42942 2.65353 8.59222 2.71655 8.74408C2.77956 8.89594 2.87192 9.03388 2.98833 9.15L11.2983 17.46C11.3908 17.5527 11.5007 17.6262 11.6217 17.6764C11.7427 17.7266 11.8724 17.7524 12.0033 17.7524C12.1343 17.7524 12.264 17.7266 12.385 17.6764C12.5059 17.6262 12.6158 17.5527 12.7083 17.46L21.0183 9.15C21.5083 8.66 21.5083 7.87 21.0183 7.38C20.5283 6.89 19.7383 6.89 19.2483 7.38L11.9983 14.62L4.74833 7.37C4.26833 6.89 3.46833 6.89 2.98833 7.38Z" fill="currentColor"/>
</svg>
