<svg width="24" height="24" viewBox="0 0 24 24" fill="none" xmlns="http://www.w3.org/2000/svg">
    <path d="M16.6185 2.98827C16.5024 2.87187 16.3645 2.77957 16.2126 2.71647C16.0607 2.65347 15.8979 2.62107 15.7335 2.62107C15.5691 2.62107 15.4063 2.65347 15.2544 2.71647C15.1026 2.77957 14.9646 2.87187 14.8485 2.98827L6.53853 11.2983C6.44583 11.3908 6.37228 11.5007 6.3221 11.6217C6.27192 11.7427 6.24609 11.8724 6.24609 12.0033C6.24609 12.1343 6.27192 12.264 6.3221 12.385C6.37228 12.5059 6.44583 12.6158 6.53853 12.7083L14.8485 21.0183C15.3385 21.5083 16.1285 21.5083 16.6185 21.0183C17.1085 20.5283 17.1085 19.7383 16.6185 19.2483L9.37853 11.9983L16.6285 4.74827C17.1085 4.26827 17.1085 3.46827 16.6185 2.98827Z" fill="currentColor"/>
</svg>
