<svg width="16" height="16" viewBox="0 0 16 16" fill="none" xmlns="http://www.w3.org/2000/svg">
    <path d="M11.079 1.99218C11.0016 1.91458 10.9097 1.85304 10.8084 1.81098C10.7071 1.76898 10.5986 1.74738 10.489 1.74738C10.3794 1.74738 10.2709 1.76898 10.1696 1.81098C10.0684 1.85304 9.9764 1.91458 9.899 1.99218L4.35902 7.5322C4.29722 7.59386 4.24819 7.66713 4.21474 7.7478C4.18128 7.82846 4.16406 7.91493 4.16406 8.0022C4.16406 8.08953 4.18128 8.176 4.21474 8.25666C4.24819 8.33726 4.29722 8.41053 4.35902 8.4722L9.899 14.0122C10.2257 14.3389 10.7523 14.3389 11.079 14.0122C11.4057 13.6855 11.4057 13.1589 11.079 12.8322L6.25236 7.99886L11.0857 3.16551C11.4057 2.84551 11.4057 2.31218 11.079 1.99218Z" fill="currentColor"/>
</svg>
