<svg width="24" height="24" viewBox="0 0 24 24" fill="none" xmlns="http://www.w3.org/2000/svg">
    <path d="M21.0117 16.62C21.1281 16.5039 21.2204 16.366 21.2835 16.2141C21.3465 16.0622 21.3789 15.8994 21.3789 15.735C21.3789 15.5706 21.3465 15.4078 21.2835 15.2559C21.2204 15.1041 21.1281 14.9661 21.0117 14.85L12.7017 6.54C12.6092 6.4473 12.4993 6.37375 12.3783 6.32357C12.2573 6.27339 12.1276 6.24756 11.9967 6.24756C11.8657 6.24756 11.736 6.27339 11.615 6.32357C11.4941 6.37375 11.3842 6.4473 11.2917 6.54L2.98167 14.85C2.49167 15.34 2.49167 16.13 2.98167 16.62C3.47167 17.11 4.26167 17.11 4.75167 16.62L12.0017 9.38L19.2517 16.63C19.7317 17.11 20.5317 17.11 21.0117 16.62Z" fill="currentColor"/>
</svg>
