<svg width="24" height="24" viewBox="0 0 24 24" fill="none" xmlns="http://www.w3.org/2000/svg">
    <path d="M14.9166 13.3247C15.5076 12.8719 15.942 12.2452 16.1585 11.5328C16.3751 10.8204 16.3629 10.058 16.1239 9.35287C15.8848 8.6477 15.4308 8.03517 14.8256 7.60135C14.2205 7.16752 13.4946 6.93422 12.75 6.93422C12.0054 6.93422 11.2795 7.16752 10.6744 7.60135C10.0692 8.03517 9.6152 8.6477 9.37613 9.35287C9.13705 10.058 9.12494 10.8204 9.34149 11.5328C9.55804 12.2452 9.99237 12.8719 10.5834 13.3247C9.47438 13.7389 8.50807 14.4637 7.8 15.4125C7.71049 15.5318 7.67206 15.6819 7.69315 15.8295C7.71425 15.9772 7.79315 16.1105 7.9125 16.2C8.03185 16.2895 8.18186 16.3279 8.32955 16.3068C8.47723 16.2857 8.61049 16.2068 8.7 16.0875C9.17156 15.4588 9.78303 14.9484 10.486 14.597C11.1889 14.2455 11.9641 14.0625 12.75 14.0625C13.5359 14.0625 14.3111 14.2455 15.014 14.597C15.717 14.9484 16.3284 15.4588 16.8 16.0875C16.8895 16.2068 17.0228 16.2857 17.1705 16.3068C17.3181 16.3279 17.4682 16.2895 17.5875 16.2C17.7068 16.1105 17.7857 15.9772 17.8068 15.8295C17.8279 15.6819 17.7895 15.5318 17.7 15.4125C16.9919 14.4637 16.0256 13.7389 14.9166 13.3247ZM10.3125 10.5C10.3125 10.0179 10.4555 9.54664 10.7233 9.1458C10.9911 8.74495 11.3718 8.43253 11.8172 8.24804C12.2626 8.06356 12.7527 8.01528 13.2255 8.10934C13.6984 8.20339 14.1327 8.43554 14.4736 8.77643C14.8145 9.11732 15.0466 9.55164 15.1407 10.0245C15.2347 10.4973 15.1864 10.9874 15.002 11.4328C14.8175 11.8782 14.505 12.2589 14.1042 12.5267C13.7034 12.7945 13.2321 12.9375 12.75 12.9375C12.1035 12.9375 11.4835 12.6807 11.0264 12.2236C10.5693 11.7665 10.3125 11.1465 10.3125 10.5ZM19.5 2.4375H6C5.6519 2.4375 5.31806 2.57578 5.07192 2.82192C4.82578 3.06806 4.6875 3.4019 4.6875 3.75V6.1875H3C2.85082 6.1875 2.70774 6.24676 2.60225 6.35225C2.49676 6.45774 2.4375 6.60082 2.4375 6.75C2.4375 6.89918 2.49676 7.04226 2.60225 7.14775C2.70774 7.25324 2.85082 7.3125 3 7.3125H4.6875V11.4375H3C2.85082 11.4375 2.70774 11.4968 2.60225 11.6023C2.49676 11.7077 2.4375 11.8508 2.4375 12C2.4375 12.1492 2.49676 12.2923 2.60225 12.3977C2.70774 12.5032 2.85082 12.5625 3 12.5625H4.6875V16.6875H3C2.85082 16.6875 2.70774 16.7468 2.60225 16.8523C2.49676 16.9577 2.4375 17.1008 2.4375 17.25C2.4375 17.3992 2.49676 17.5423 2.60225 17.6477C2.70774 17.7532 2.85082 17.8125 3 17.8125H4.6875V20.25C4.6875 20.5981 4.82578 20.9319 5.07192 21.1781C5.31806 21.4242 5.6519 21.5625 6 21.5625H19.5C19.8481 21.5625 20.1819 21.4242 20.4281 21.1781C20.6742 20.9319 20.8125 20.5981 20.8125 20.25V3.75C20.8125 3.4019 20.6742 3.06806 20.4281 2.82192C20.1819 2.57578 19.8481 2.4375 19.5 2.4375ZM19.6875 20.25C19.6875 20.2997 19.6677 20.3474 19.6326 20.3826C19.5974 20.4177 19.5497 20.4375 19.5 20.4375H6C5.95027 20.4375 5.90258 20.4177 5.86742 20.3826C5.83225 20.3474 5.8125 20.2997 5.8125 20.25V3.75C5.8125 3.70027 5.83225 3.65258 5.86742 3.61742C5.90258 3.58225 5.95027 3.5625 6 3.5625H19.5C19.5497 3.5625 19.5974 3.58225 19.6326 3.61742C19.6677 3.65258 19.6875 3.70027 19.6875 3.75V20.25Z" fill="currentColor"/>
</svg>
