<svg width="24" height="24" viewBox="0 0 24 24" fill="none" xmlns="http://www.w3.org/2000/svg">
    <path d="M13 13.15V10C13 9.71667 12.904 9.479 12.712 9.287C12.52 9.095 12.2827 8.99933 12 9C11.7167 9 11.479 9.096 11.287 9.288C11.095 9.48 10.9993 9.71733 11 10V13.15L10.1 12.275C9.91667 12.0917 9.68733 12 9.412 12C9.13667 12 8.89934 12.1 8.7 12.3C8.51667 12.4833 8.425 12.7167 8.425 13C8.425 13.2833 8.51667 13.5167 8.7 13.7L11.3 16.3C11.5 16.5 11.7333 16.6 12 16.6C12.2667 16.6 12.5 16.5 12.7 16.3L15.3 13.7C15.4833 13.5167 15.579 13.2877 15.587 13.013C15.595 12.7383 15.4993 12.5007 15.3 12.3C15.1167 12.1167 14.8873 12.0207 14.612 12.012C14.3367 12.0033 14.0993 12.091 13.9 12.275L13 13.15ZM6 22C5.45 22 4.979 21.804 4.587 21.412C4.195 21.02 3.99934 20.5493 4 20V8.825C4 8.55833 4.05 8.30433 4.15 8.063C4.25 7.82167 4.39167 7.609 4.575 7.425L9.425 2.575C9.60834 2.39167 9.821 2.25 10.063 2.15C10.305 2.05 10.559 2 10.825 2H18C18.55 2 19.021 2.196 19.413 2.588C19.805 2.98 20.0007 3.45067 20 4V20C20 20.55 19.804 21.021 19.412 21.413C19.02 21.805 18.5493 22.0007 18 22H6ZM6 20H18V4H10.85L6 8.85V20Z" fill="currentColor"/>
</svg>
