<svg width="24" height="24" viewBox="0 0 24 24" fill="none" xmlns="http://www.w3.org/2000/svg">
    <path d="M5 23.7C4.45 23.7 3.979 23.5043 3.587 23.113C3.195 22.7217 2.99934 22.2507 3 21.7V7.69999C3 7.14999 3.196 6.67899 3.588 6.28699C3.98 5.89499 4.45067 5.69932 5 5.69999H13.925L11.925 7.69999H5V21.7H19V14.75L21 12.75V21.7C21 22.25 20.804 22.721 20.412 23.113C20.02 23.505 19.5493 23.7007 19 23.7H5ZM16.175 6.27499L17.6 7.67499L11 14.275V15.7H12.4L19.025 9.07499L20.45 10.475L13.25 17.7H9V13.45L16.175 6.27499ZM20.45 10.475L16.175 6.27499L18.675 3.77499C19.075 3.37499 19.5543 3.17499 20.113 3.17499C20.6717 3.17499 21.1423 3.37499 21.525 3.77499L22.925 5.19999C23.3083 5.58332 23.5 6.04999 23.5 6.59999C23.5 7.14999 23.3083 7.61665 22.925 7.99999L20.45 10.475Z" fill="currentColor"/>
</svg>
