<svg width="24" height="24" viewBox="0 0 24 24" fill="none" xmlns="http://www.w3.org/2000/svg">
    <path d="M15 1.125C13.7766 1.12571 12.5701 1.41129 11.4762 1.95913C10.3822 2.50697 9.4309 3.30201 8.69751 4.28128C7.96413 5.26055 7.46886 6.39713 7.25091 7.60101C7.03297 8.80488 7.09835 10.043 7.44188 11.2172L2.20406 16.4541C2.09962 16.5586 2.01681 16.6827 1.96035 16.8193C1.90389 16.9559 1.87488 17.1022 1.875 17.25V21C1.875 21.2984 1.99353 21.5845 2.20451 21.7955C2.41548 22.0065 2.70163 22.125 3 22.125H6.75C7.04837 22.125 7.33452 22.0065 7.5455 21.7955C7.75647 21.5845 7.875 21.2984 7.875 21V19.875H9C9.29837 19.875 9.58452 19.7565 9.7955 19.5455C10.0065 19.3345 10.125 19.0484 10.125 18.75V17.625H11.25C11.3978 17.6251 11.5441 17.5961 11.6807 17.5397C11.8173 17.4832 11.9414 17.4004 12.0459 17.2959L12.7828 16.5581C13.8657 16.875 15.0041 16.9554 16.1208 16.794C17.2375 16.6326 18.3064 16.2331 19.2553 15.6226C20.2042 15.0121 21.0108 14.2048 21.6205 13.2554C22.2302 12.306 22.6287 11.2367 22.7892 10.1199C22.9496 9.00302 22.8682 7.86474 22.5505 6.78211C22.2327 5.69947 21.686 4.69777 20.9474 3.84482C20.2087 2.99187 19.2955 2.30761 18.2694 1.83836C17.2433 1.3691 16.1283 1.12583 15 1.125ZM15 14.625C14.2906 14.6265 13.5875 14.4929 12.9281 14.2313C12.7213 14.1426 12.4927 14.118 12.2718 14.1606C12.0508 14.2032 11.8477 14.3111 11.6888 14.4703L10.7813 15.375H9C8.70163 15.375 8.41548 15.4935 8.20451 15.7045C7.99353 15.9155 7.875 16.2016 7.875 16.5V17.625H6.75C6.45163 17.625 6.16548 17.7435 5.95451 17.9545C5.74353 18.1655 5.625 18.4516 5.625 18.75V19.875H4.125V17.7188L9.52969 12.3141C9.68872 12.1552 9.79649 11.9522 9.8391 11.7315C9.88171 11.5108 9.85721 11.2823 9.76875 11.0756C9.32482 9.95745 9.25108 8.72641 9.55838 7.56324C9.86567 6.40007 10.5378 5.36608 11.4761 4.61307C12.4144 3.86006 13.5693 3.42771 14.7714 3.37952C15.9736 3.33132 17.1594 3.66981 18.155 4.34528C19.1505 5.02076 19.9033 5.99763 20.3027 7.13246C20.7022 8.26729 20.7272 9.50029 20.3742 10.6504C20.0212 11.8005 19.3088 12.8072 18.3415 13.5226C17.3742 14.2379 16.2031 14.6243 15 14.625ZM18.375 7.125C18.375 7.42167 18.287 7.71168 18.1222 7.95836C17.9574 8.20503 17.7231 8.39729 17.449 8.51082C17.1749 8.62435 16.8733 8.65406 16.5824 8.59618C16.2914 8.5383 16.0241 8.39544 15.8143 8.18566C15.6046 7.97588 15.4617 7.70861 15.4038 7.41764C15.3459 7.12666 15.3757 6.82506 15.4892 6.55098C15.6027 6.27689 15.795 6.04262 16.0416 5.8778C16.2883 5.71297 16.5783 5.625 16.875 5.625C17.2728 5.625 17.6544 5.78304 17.9357 6.06434C18.217 6.34564 18.375 6.72718 18.375 7.125Z" fill="currentColor"/>
</svg>
