<svg width="24" height="24" viewBox="0 0 24 24" fill="none" xmlns="http://www.w3.org/2000/svg">
    <path d="M12.9554 22.0449C12.6155 21.6941 12.3164 21.3059 12.064 20.8877C11.5026 20.9606 10.9086 21 10.2863 21C5.90542 21 3.00056 19.1906 3.00056 16.8986V16.2857L3.00656 16.1614C3.03744 15.8435 3.18561 15.5484 3.42218 15.3337C3.65875 15.1189 3.96679 15 4.28627 15H11.6783C11.8778 14.5438 12.1298 14.1123 12.4291 13.7143H4.28627C3.60429 13.7143 2.95023 13.9852 2.468 14.4674C1.98576 14.9497 1.71484 15.6037 1.71484 16.2857V16.8986C1.71484 20.0854 5.32342 22.2857 10.2863 22.2857C11.1815 22.2885 12.0751 22.2079 12.9554 22.0449ZM15.4291 6.85715C15.4291 5.49318 14.8873 4.18508 13.9228 3.2206C12.9584 2.25613 11.6502 1.71429 10.2863 1.71429C8.9223 1.71429 7.6142 2.25613 6.64972 3.2206C5.68525 4.18508 5.14342 5.49318 5.14342 6.85715C5.14342 8.22112 5.68525 9.52923 6.64972 10.4937C7.6142 11.4582 8.9223 12 10.2863 12C11.6502 12 12.9584 11.4582 13.9228 10.4937C14.8873 9.52923 15.4291 8.22112 15.4291 6.85715ZM6.42913 6.85715C6.42913 5.83417 6.83551 4.85309 7.55886 4.12974C8.28222 3.40639 9.2633 3.00001 10.2863 3.00001C11.3093 3.00001 12.2903 3.40639 13.0137 4.12974C13.737 4.85309 14.1434 5.83417 14.1434 6.85715C14.1434 7.88013 13.737 8.86121 13.0137 9.58456C12.2903 10.3079 11.3093 10.7143 10.2863 10.7143C9.2633 10.7143 8.28222 10.3079 7.55886 9.58456C6.83551 8.86121 6.42913 7.88013 6.42913 6.85715ZM17.572 23.1429C19.0496 23.1429 20.4667 22.5559 21.5116 21.511C22.5564 20.4662 23.1434 19.0491 23.1434 17.5714C23.1434 16.0938 22.5564 14.6767 21.5116 13.6318C20.4667 12.587 19.0496 12 17.572 12C16.0944 12 14.6772 12.587 13.6324 13.6318C12.5875 14.6767 12.0006 16.0938 12.0006 17.5714C12.0006 19.0491 12.5875 20.4662 13.6324 21.511C14.6772 22.5559 16.0944 23.1429 17.572 23.1429ZM17.572 13.7143C17.6857 13.7143 17.7947 13.7594 17.875 13.8398C17.9554 13.9202 18.0006 14.0292 18.0006 14.1429V17.1429H21.0006C21.1142 17.1429 21.2232 17.188 21.3036 17.2684C21.384 17.3488 21.4291 17.4578 21.4291 17.5714C21.4291 17.6851 21.384 17.7941 21.3036 17.8745C21.2232 17.9549 21.1142 18 21.0006 18H18.0006V21C18.0006 21.1137 17.9554 21.2227 17.875 21.3031C17.7947 21.3834 17.6857 21.4286 17.572 21.4286C17.4583 21.4286 17.3493 21.3834 17.2689 21.3031C17.1886 21.2227 17.1434 21.1137 17.1434 21V18H14.1434C14.0298 18 13.9207 17.9549 13.8404 17.8745C13.76 17.7941 13.7148 17.6851 13.7148 17.5714C13.7148 17.4578 13.76 17.3488 13.8404 17.2684C13.9207 17.188 14.0298 17.1429 14.1434 17.1429H17.1434V14.1429C17.1434 14.0292 17.1886 13.9202 17.2689 13.8398C17.3493 13.7594 17.4583 13.7143 17.572 13.7143Z" fill="currentColor"/>
</svg>
